<svg width="512" height="512" viewBox="0 0 512 512" fill="none" xmlns="http://www.w3.org/2000/svg">
    <path
        d="M472 452C472 463.046 463.046 472 452 472H432V492C432 503.046 423.046 512 412 512C400.954 512 392 503.046 392 492V472H372C360.954 472 352 463.046 352 452C352 440.954 360.954 432 372 432H392V412C392 400.954 400.954 392 412 392C423.046 392 432 400.954 432 412V432H452C463.046 432 472 440.954 472 452ZM472 140V332C472 343.046 463.046 352 452 352C440.954 352 432 343.046 432 332V160H392V220C392 231.046 383.046 240 372 240C360.954 240 352 231.046 352 220V160H160V220C160 231.046 151.046 240 140 240C128.954 240 120 231.046 120 220V160H80V472H292C303.046 472 312 480.954 312 492C312 503.046 303.046 512 292 512H60C48.954 512 40 503.046 40 492V140C40 128.954 48.954 120 60 120H120.946C128.891 52.523 186.423 0 256 0C325.577 0 383.109 52.523 391.054 120H452C463.046 120 472 128.954 472 140ZM350.659 120C343.019 74.655 303.483 40 256 40C208.517 40 168.981 74.655 161.341 120H350.659Z"
        fill="none" />
</svg>