<svg width="46" height="45" viewBox="0 0 46 45" fill="none" xmlns="http://www.w3.org/2000/svg">
    <path
        d="M3.34114 44.2303V44.1842H2.84114C1.56289 44.1842 0.5 43.1186 0.5 41.8209V8.75447C0.5 7.45675 1.56289 6.39118 2.84114 6.39118H8.75255H9.25255V5.89118V3.2588C9.25255 1.96108 10.3154 0.895508 11.5937 0.895508C12.8719 0.895508 13.9348 1.96108 13.9348 3.2588V5.93736V6.43736H14.4348H30.6568H31.1568V5.93736V3.2588V3.2515L31.1566 3.24421C31.1192 1.96064 32.171 0.895508 33.4521 0.895508C34.7304 0.895508 35.7933 1.96108 35.7933 3.2588V5.93736V6.43736H36.2933H42.2047C43.4829 6.43736 44.5458 7.50294 44.5458 8.80065V41.8671C44.5458 43.1648 43.4829 44.2303 42.2047 44.2303H3.34114ZM44.2627 17.1134V16.6134H43.7627H1.2831H0.783096V17.1134V41.8209C0.783096 42.9708 1.69067 43.8911 2.84114 43.8911H42.2047C43.3552 43.8911 44.2627 42.9708 44.2627 41.8209V17.1134ZM0.783096 15.8203V16.3203H1.2831H43.7627H44.2627V15.8203V8.75447C44.2627 7.60454 43.3552 6.68428 42.2047 6.68428H36.2475H35.7475V7.18428V9.86284C35.7475 11.1606 34.6846 12.2261 33.4063 12.2261C32.1281 12.2261 31.0652 11.1606 31.0652 9.86284V7.18428V6.68428H30.5652H14.389H13.889V7.18428V9.86284C13.889 11.1606 12.8261 12.2261 11.5479 12.2261C10.2696 12.2261 9.20672 11.1606 9.20672 9.86284V7.18428V6.68428H8.70672H2.84114C1.69067 6.68428 0.783096 7.60454 0.783096 8.75447V15.8203ZM13.6517 3.2588V3.2464L13.6511 3.23402C13.5934 2.07094 12.7569 1.18861 11.5937 1.18861C10.4432 1.18861 9.53564 2.10886 9.53564 3.2588V9.86284C9.53564 11.0128 10.4432 11.933 11.5937 11.933C12.7442 11.933 13.6517 11.0128 13.6517 9.86284V3.2588ZM33.4521 1.18861C32.3017 1.18861 31.3941 2.10886 31.3941 3.2588V9.86284C31.3941 11.0128 32.3017 11.933 33.4521 11.933C34.6026 11.933 35.5102 11.0128 35.5102 9.86284V3.2588C35.5102 2.05298 34.5929 1.18861 33.4521 1.18861Z"
        fill="#DB9688" stroke="white" />
    <path d="M22.5 20.5264V38.1412" stroke="white" />
    <path d="M31.5 29.082L14 29.082" stroke="white" />
</svg>