<svg width="35" height="31" viewBox="0 0 35 31" fill="none" xmlns="http://www.w3.org/2000/svg">
    <path
        d="M5.83333 31C5.99425 31 6.11494 30.9597 6.23563 30.8792L15.6897 22.9481H34.3966C34.7184 22.9481 35 22.6662 35 22.3442V0.603896C35 0.281818 34.7586 0.0402597 34.4368 0H0.603451C0.281609 0 0 0.281818 0 0.603896V22.3442C0 22.6662 0.281609 22.9481 0.603451 22.9481H5.22989V30.3961C5.22989 30.5169 5.27012 30.6779 5.35058 30.7987C5.47127 30.9195 5.67241 31 5.83333 31ZM33.7931 21.7403H15.4885C15.3678 21.7403 15.2069 21.7805 15.0862 21.9013L6.43678 29.1481V22.3442C6.43678 22.0221 6.15517 21.7403 5.83333 21.7403H1.2069V1.20779H33.7931V21.7403Z"
        fill="white" />
</svg>