<svg width="45" height="55" viewBox="0 0 45 55" fill="none" xmlns="http://www.w3.org/2000/svg">
    <path
        d="M0.942768 50.8894C14.762 41.8645 26.3299 29.4105 34.2103 14.9353C36.4119 10.8387 38.371 6.64989 40.0326 2.29908C41.0203 3.04921 41.9529 3.72956 42.9405 4.47969C40.4954 6.90419 37.2725 8.41412 33.9041 9.02195C32.9995 9.16643 32.0595 8.54837 31.844 7.7011C31.581 6.72176 32.0528 5.95676 32.8697 5.48584C35.8576 3.8214 38.8455 2.15697 41.8259 0.554829C42.8377 0.0440423 44.3876 0.861487 44.4409 2.00529C44.5334 5.99737 44.6958 9.93463 44.7884 13.9267C44.794 14.9384 44.2998 15.8903 43.2003 16.0747C42.2957 16.2191 41.1132 15.5089 41.0451 14.4897C40.9525 10.4976 40.7901 6.56032 40.6976 2.56824C41.605 2.92963 42.4975 3.41561 43.3275 3.89411C40.3396 5.55854 37.3517 7.22298 34.3713 8.82511C34.0057 7.64392 33.71 6.4079 33.3444 5.2267C36.1281 4.73845 38.5639 3.45026 40.5744 1.47926C41.1488 0.916119 42.281 0.988452 42.8611 1.43703C43.5586 1.96287 43.7667 2.87244 43.4823 3.65987C37.4522 19.6203 27.37 33.9583 14.5468 45.251C11.005 48.3657 7.23576 51.2636 3.25382 53.8201C2.42946 54.3533 1.28986 54.3433 0.629558 53.506C0.0168246 52.8007 0.0484646 51.4775 0.942768 50.8894Z"
        fill="#10777E" />
</svg>