<svg width="26" height="36" viewBox="0 0 26 36" fill="none" xmlns="http://www.w3.org/2000/svg">
    <path
        d="M7.85078 16.643H9.35412V13.4272H12.5278V11.9039H9.35412V8.68819H7.85078V11.9039H4.67706V13.4272H7.85078V16.643V16.643ZM21.6592 3.94918H19.5991L19.0423 2.31309C18.5969 0.959085 17.3163 0 15.8686 0H9.18708C7.73942 0 6.4588 0.959085 6.01336 2.31309L5.45657 3.94918H3.39644C1.50334 3.94918 0 5.47243 0 7.3906V32.4961C0 34.3578 1.50334 35.9375 3.39644 35.9375H21.6592C23.4967 35.9375 25.0557 34.4142 25.0557 32.4961V7.3906C25 5.47243 23.4967 3.94918 21.6592 3.94918ZM7.40534 2.82084C7.62806 2.031 8.35189 1.52325 9.1314 1.52325H15.8129C16.5924 1.52325 17.3163 2.031 17.5947 2.82084L17.9844 3.94918H7.01559L7.40534 2.82084ZM23.4967 32.4961C23.4967 33.5116 22.6615 34.3578 21.6592 34.3578H3.39644C2.39421 34.3578 1.55902 33.5116 1.55902 32.4961V7.3906C1.55902 6.3751 2.39421 5.52885 3.39644 5.52885H21.6592C22.6615 5.52885 23.4967 6.3751 23.4967 7.3906V32.4961V32.4961ZM13.8085 16.0788H20.3229V14.5555H13.8085V16.0788ZM4.67706 21.382H20.3229V19.8587H4.67706V21.382ZM4.67706 26.6851H20.3229V25.1619H4.67706V26.6851Z"
        fill="white" />
</svg>