<svg width="20" height="20" viewBox="0 0 20 20" fill="none" xmlns="http://www.w3.org/2000/svg">
    <path
        d="M10 4.40039C3.439 4.40039 0 9.23239 0 10.0004C0 10.7664 3.439 15.6004 10 15.6004C16.56 15.6004 20 10.7664 20 10.0004C20 9.23239 16.56 4.40039 10 4.40039ZM10 14.3074C7.545 14.3074 5.555 12.3794 5.555 10.0004C5.555 7.62139 7.545 5.69139 10 5.69139C12.455 5.69139 14.444 7.62139 14.444 10.0004C14.444 12.3794 12.455 14.3074 10 14.3074ZM10 10.0004C9.593 9.55339 10.663 7.84639 10 7.84639C8.772 7.84639 7.777 8.81139 7.777 10.0004C7.777 11.1894 8.772 12.1544 10 12.1544C11.227 12.1544 12.223 11.1894 12.223 10.0004C12.223 9.45339 10.346 10.3794 10 10.0004Z" />
</svg>