<svg width="20" height="20" viewBox="0 0 20 20" fill="none" xmlns="http://www.w3.org/2000/svg">
    <path
        d="M18.521 1.47833C18.3335 1.29086 18.0792 1.18555 17.814 1.18555C17.5488 1.18555 17.2945 1.29086 17.107 1.47833L1.48 17.1073C1.38449 17.1996 1.30831 17.3099 1.2559 17.4319C1.20349 17.5539 1.1759 17.6852 1.17475 17.8179C1.1736 17.9507 1.1989 18.0824 1.24918 18.2053C1.29946 18.3282 1.37371 18.4398 1.4676 18.5337C1.5615 18.6276 1.67315 18.7019 1.79605 18.7522C1.91894 18.8024 2.05062 18.8277 2.1834 18.8266C2.31618 18.8254 2.4474 18.7978 2.5694 18.7454C2.69141 18.693 2.80175 18.6168 2.894 18.5213L18.52 2.89233C18.7075 2.70481 18.8128 2.4505 18.8128 2.18533C18.8128 1.92017 18.7075 1.66586 18.52 1.47833H18.521ZM3.108 13.4983L5.668 10.9383C5.59501 10.6309 5.5571 10.3163 5.555 10.0003C5.555 7.62133 7.545 5.69133 10 5.69133C10.286 5.69133 10.564 5.72333 10.835 5.77333L12.038 4.57133C11.3644 4.45974 10.6828 4.40288 10 4.40133C3.44 4.40033 0 9.23133 0 10.0003C0 10.4233 1.057 12.0903 3.108 13.4973V13.4983ZM16.895 6.50533L14.333 9.06533C14.402 9.36733 14.444 9.67833 14.444 10.0003C14.444 12.3793 12.455 14.3073 10 14.3073C9.716 14.3073 9.44 14.2753 9.171 14.2263L7.967 15.4293C8.609 15.5333 9.283 15.5993 10 15.5993C16.56 15.5993 20 10.7663 20 10.0003C20 9.57633 18.944 7.91033 16.895 6.50533V6.50533Z" />
</svg>