<svg width="43" height="43" viewBox="0 0 43 43" fill="none" xmlns="http://www.w3.org/2000/svg">
<path d="M21.5 43C9.66779 43 0 33.3322 0 21.5C0 9.66779 9.66779 0 21.5 0C33.3322 0 43 9.66779 43 21.5C43 33.3322 33.3322 43 21.5 43ZM21.5 1.34676C10.3893 1.34676 1.34676 10.3893 1.34676 21.5C1.34676 32.6107 10.3893 41.6532 21.5 41.6532C32.6107 41.6532 41.6532 32.6107 41.6532 21.5C41.6532 10.3893 32.6107 1.34676 21.5 1.34676ZM19.528 33.236C18.2293 33.236 17.1711 32.1778 17.1711 30.8792V25.8289H12.1208C10.8221 25.8289 9.76398 24.7707 9.76398 23.472V19.5761C9.76398 18.2774 10.8221 17.2192 12.1208 17.2192H17.2192V12.1208C17.2192 10.8221 18.2774 9.76398 19.5761 9.76398H23.472C24.7707 9.76398 25.8289 10.8221 25.8289 12.1208V17.2192H30.9273C32.226 17.2192 33.2841 18.2774 33.2841 19.5761V23.472C33.2841 24.7707 32.226 25.8289 30.9273 25.8289H25.8289V30.9273C25.8289 32.226 24.7707 33.2841 23.472 33.2841H19.528V33.236ZM12.1208 18.5179C11.5436 18.5179 11.1107 18.9508 11.1107 19.528V23.4239C11.1107 24.0011 11.5436 24.434 12.1208 24.434H17.8926C18.085 24.434 18.2293 24.4821 18.3736 24.6264C18.5179 24.7707 18.566 24.915 18.566 25.1074V30.8792C18.566 31.4564 18.9989 31.8893 19.5761 31.8893H23.472C24.0492 31.8893 24.4821 31.4564 24.4821 30.8792V25.1074C24.4821 24.915 24.5302 24.7707 24.6745 24.6264C24.8188 24.4821 24.9631 24.434 25.1555 24.434H30.9273C31.5045 24.434 31.9374 24.0011 31.9374 23.4239V19.528C31.9374 18.9508 31.5045 18.5179 30.9273 18.5179H25.1555C24.7707 18.5179 24.4821 18.2293 24.4821 17.8445V12.0727C24.4821 11.4955 24.0492 11.0626 23.472 11.0626H19.5761C18.9989 11.0626 18.566 11.4955 18.566 12.0727V17.8445C18.566 18.2293 18.2774 18.5179 17.8926 18.5179H12.1208Z" fill="#10777E"/>
</svg>
