<svg width="19" height="19" viewBox="0 0 19 19" fill="none" xmlns="http://www.w3.org/2000/svg">
<path d="M9.30614 4.79925C6.76266 4.79925 4.73582 6.86583 4.73582 9.36956C4.73582 11.913 6.76266 13.9399 9.30614 13.9399C11.8099 13.9399 13.8764 11.913 13.8764 9.36956C13.8764 6.86583 11.8099 4.79925 9.30614 4.79925ZM9.30614 12.3502C7.67672 12.3502 6.3255 11.0387 6.3255 9.36956C6.3255 7.74015 7.63698 6.42867 9.30614 6.42867C10.9356 6.42867 12.247 7.74015 12.247 9.36956C12.247 11.0387 10.9356 12.3502 9.30614 12.3502ZM15.1084 4.64028C15.1084 4.04416 14.6315 3.56725 14.0354 3.56725C13.4393 3.56725 12.9624 4.04416 12.9624 4.64028C12.9624 5.23641 13.4393 5.71331 14.0354 5.71331C14.6315 5.71331 15.1084 5.23641 15.1084 4.64028ZM18.1288 5.71331C18.0493 4.28261 17.7314 3.01087 16.6981 1.97758C15.6648 0.944292 14.3931 0.626357 12.9624 0.546874C11.4919 0.46739 7.08059 0.46739 5.61014 0.546874C4.17944 0.626357 2.94744 0.944292 1.87441 1.97758C0.841123 3.01087 0.523188 4.28261 0.443704 5.71331C0.36422 7.18376 0.36422 11.5951 0.443704 13.0656C0.523188 14.4963 0.841123 15.7283 1.87441 16.8013C2.94744 17.8346 4.17944 18.1525 5.61014 18.232C7.08059 18.3115 11.4919 18.3115 12.9624 18.232C14.3931 18.1525 15.6648 17.8346 16.6981 16.8013C17.7314 15.7283 18.0493 14.4963 18.1288 13.0656C18.2083 11.5951 18.2083 7.18376 18.1288 5.71331ZM16.2212 14.6155C15.943 15.4103 15.3072 16.0065 14.5521 16.3244C13.3598 16.8013 10.5779 16.6821 9.30614 16.6821C7.99466 16.6821 5.21273 16.8013 4.06021 16.3244C3.26538 16.0065 2.66925 15.4103 2.35131 14.6155C1.87441 13.463 1.99364 10.681 1.99364 9.36956C1.99364 8.09783 1.87441 5.3159 2.35131 4.12364C2.66925 3.36854 3.26538 2.77242 4.06021 2.45448C5.21273 1.97758 7.99466 2.09681 9.30614 2.09681C10.5779 2.09681 13.3598 1.97758 14.5521 2.45448C15.3072 2.73268 15.9033 3.36854 16.2212 4.12364C16.6981 5.3159 16.5789 8.09783 16.5789 9.36956C16.5789 10.681 16.6981 13.463 16.2212 14.6155Z" fill="#10777E"/>
</svg>
