<svg width="26" height="39" viewBox="0 0 26 39" fill="none" xmlns="http://www.w3.org/2000/svg">
    <path
        d="M15.3819 36.782C14.6156 37.7016 13.3566 38.0802 12.2072 37.8098C11.5503 37.6475 10.9482 37.2688 10.5103 36.7279C10.3461 36.5116 9.96296 36.4575 9.74402 36.6197C9.52507 36.782 9.47033 37.1607 9.63454 37.377C10.2366 38.0802 11.0577 38.6211 11.9335 38.8375C12.2619 38.9457 12.5903 38.9457 12.9735 38.9457C14.2324 38.9457 15.4366 38.4048 16.203 37.4311C16.4219 37.2148 16.3672 36.8361 16.1482 36.6738C15.9293 36.5657 15.6009 36.5657 15.3819 36.782Z"
        fill="#10777E" />
    <path
        d="M13.0274 0C5.85684 0 0 5.78779 0 12.8738C0 18.1207 3.12 22.7184 7.93684 24.7198V28.7226H18.0632V24.7198C22.8253 22.7184 26 18.0125 26 12.8738C26 5.78779 20.1432 0 13.0274 0ZM17.2968 23.8003L16.9684 23.9626V27.6408H13.52V18.2829L17.4611 14.3883C17.68 14.172 17.68 13.8474 17.4611 13.6311C17.2421 13.4147 16.9137 13.4147 16.6947 13.6311L12.9726 17.3093L9.41474 13.7933C9.19579 13.577 8.86737 13.577 8.64842 13.7933C8.42947 14.0097 8.42947 14.3343 8.64842 14.5506L12.4253 18.2829V27.6408H9.03158V23.9626L8.70316 23.8003C4.10526 22.0693 1.09474 17.742 1.09474 12.8738C1.09474 6.3828 6.45895 1.08183 13.0274 1.08183C19.5958 1.08183 24.96 6.3828 24.96 12.8738C24.9053 17.6879 21.84 22.0693 17.2968 23.8003Z"
        fill="#10777E" />
    <path
        d="M17.407 34.3477H8.48487C8.21118 34.3477 7.9375 34.6181 7.9375 34.8886C7.9375 35.159 8.21118 35.4295 8.48487 35.4295H17.407C17.6807 35.4295 17.9543 35.159 17.9543 34.8886C17.9543 34.6181 17.7354 34.3477 17.407 34.3477Z"
        fill="#10777E" />
    <path
        d="M17.407 32.2383H8.48487C8.21118 32.2383 7.9375 32.5087 7.9375 32.7792C7.9375 33.0497 8.21118 33.3201 8.48487 33.3201H17.407C17.6807 33.3201 17.9543 33.0497 17.9543 32.7792C17.9543 32.5087 17.7354 32.2383 17.407 32.2383Z"
        fill="#10777E" />
    <path
        d="M17.407 30.1826H8.48487C8.21118 30.1826 7.9375 30.4531 7.9375 30.7235C7.9375 30.994 8.21118 31.2644 8.48487 31.2644H17.407C17.6807 31.2644 17.9543 30.994 17.9543 30.7235C17.9543 30.4531 17.7354 30.1826 17.407 30.1826Z"
        fill="#10777E" />
</svg>