<svg width="35" height="36" viewBox="0 0 35 36" fill="none" xmlns="http://www.w3.org/2000/svg">
<path fill-rule="evenodd" clip-rule="evenodd" d="M28.4503 25.4455C28.4503 25.4455 28.4503 25.5682 28.4503 25.6091C28.4503 25.8136 28.4912 25.9773 28.4912 26.1818C28.4912 27.3682 28.1637 28.5136 27.5906 29.4545C27.345 29.8636 27.5088 30.3546 27.8772 30.5591C28.2866 30.8046 28.7778 30.6409 28.9825 30.2727C29.6784 29.0864 30.0877 27.6545 30.0877 26.1818C30.0877 25.8955 30.0877 25.6091 30.0468 25.3227C30.0468 25.2818 30.0468 25.2818 30.0468 25.2409C29.5965 21.15 26.117 17.9591 21.9006 17.9591C17.3977 17.9591 13.7135 21.6409 13.7135 26.1409C12.4035 26.1409 11.1754 26.6727 10.2339 27.5727C9.2924 28.4727 8.80117 29.7409 8.80117 31.05C8.80117 32.3591 9.33333 33.5864 10.2339 34.5273C11.1345 35.4682 12.4035 35.9591 13.7135 35.9591H29.2281C30.7427 35.9591 32.2164 35.3455 33.2807 34.2818C34.345 33.2182 34.9591 31.7455 34.9591 30.2318C34.9591 28.7182 34.345 27.2455 33.2807 26.1818C32.9532 25.8545 32.462 25.8545 32.1345 26.1818C31.807 26.5091 31.807 27 32.1345 27.3273C32.9123 28.1045 33.3216 29.1273 33.3216 30.2318C33.3216 31.3364 32.8713 32.3591 32.1345 33.1364C31.3977 33.9136 30.3333 34.3227 29.2281 34.3227H13.7135C12.8538 34.3227 11.9942 33.9954 11.3801 33.3818C10.7661 32.7682 10.4386 31.95 10.4386 31.05C10.4386 30.1909 10.7661 29.3318 11.3801 28.7182C11.9942 28.1046 12.8129 27.7773 13.7135 27.7773H14.5731C14.8187 27.7773 15.0234 27.6955 15.1871 27.4909C15.3509 27.3273 15.4328 27.0818 15.3918 26.8364C15.3509 26.5909 15.3509 26.3455 15.3509 26.1C15.3509 22.5 18.2982 19.5545 21.9006 19.5545C25.3392 19.6364 28.0819 22.1727 28.4503 25.4455ZM17.152 1.67728C16.1287 3.92728 15.5965 6.42273 15.5965 9C15.5965 11.5364 16.1287 13.9909 17.0702 16.1591C17.2339 16.5682 17.7252 16.7727 18.1345 16.5682C18.5439 16.4045 18.7485 15.9136 18.5439 15.5045C17.6842 13.5 17.193 11.2909 17.193 9C17.193 6.17727 17.8889 3.51818 19.1579 1.22727C19.2807 0.981818 19.2807 0.654546 19.1579 0.409091C19.0351 0.163636 18.7485 0 18.462 0C18.2982 0 18.1754 0 18.0117 0C8.06433 0 0 8.05909 0 18C0 23.2364 2.21053 27.9 5.77193 31.2136C6.09942 31.5409 6.63158 31.5 6.91813 31.1727C7.20468 30.8455 7.20469 30.3136 6.8772 30.0273C3.68422 27 1.67837 22.7455 1.67837 18C1.67837 9.28637 8.55555 2.12728 17.152 1.67728Z" fill="#10777E"/>
</svg>
