<svg width="103" height="31" viewBox="0 0 103 31" fill="none" xmlns="http://www.w3.org/2000/svg">
    <path
        d="M85.6575 31C76.6409 31 69.3149 24.0517 69.3149 15.5C69.3149 6.94828 76.6409 0 85.6575 0C90.0953 0 94.2514 1.67026 97.3508 4.60991C100.38 7.54957 102.07 11.4246 102 15.5C102 24.0517 94.674 31 85.6575 31ZM82.6285 21.3125C79.5994 21.3125 76.7818 23.0496 75.4434 25.6552L75.3025 25.9224L75.5138 26.1228C78.261 28.528 81.924 29.8642 85.7279 29.8642C89.4613 29.8642 93.1243 28.528 95.8715 26.1228L96.0829 25.9224L95.942 25.6552C94.6036 22.9828 91.7859 21.3125 88.7569 21.3125H82.6285ZM88.616 20.1099C91.9972 20.1099 95.0262 21.7802 96.6464 24.5194L96.9282 25.0539L97.3508 24.5862C99.605 21.9138 100.732 18.7737 100.732 15.5C100.732 7.61638 93.9696 1.13578 85.587 1.13578C77.2749 1.13578 70.442 7.54957 70.3715 15.5C70.3715 18.8405 71.5691 22.1142 73.7528 24.5862L74.1754 25.0539L74.4572 24.5194C76.0069 21.7802 79.1063 20.1099 82.4876 20.1099H88.616ZM16.3425 31C7.32597 31 0 24.0517 0 15.5C0 6.94828 7.32597 0 16.3425 0C20.7804 0 24.9365 1.67026 28.0359 4.60991C31.0649 7.54957 32.7555 11.4246 32.6851 15.5C32.6851 24.0517 25.3591 31 16.3425 31ZM13.384 21.3125C10.355 21.3125 7.53729 23.0496 6.19889 25.6552L6.05801 25.9224L6.26934 26.1228C9.01657 28.528 12.6796 29.8642 16.4834 29.8642C20.2168 29.8642 23.8798 28.528 26.6271 26.1228L26.8384 25.9224L26.6975 25.6552C25.3591 22.9828 22.5414 21.3125 19.5124 21.3125H13.384ZM19.3715 20.1099C22.7528 20.1099 25.7818 21.7802 27.4019 24.5194L27.6837 25.0539L28.1064 24.5862C30.3605 21.9138 31.4876 18.7737 31.4876 15.5C31.4876 7.61638 24.7251 1.13578 16.3425 1.13578C8.03039 1.13578 1.19751 7.54957 1.12707 15.5C1.12707 18.8405 2.32459 22.1142 4.50829 24.5862L4.93094 25.0539L5.21271 24.5194C6.76243 21.7802 9.86188 20.1099 13.2431 20.1099H19.3715ZM52.1975 24.9203C52.1271 24.9203 52.0566 24.9203 52.0566 24.8534C51.7044 24.653 51.634 24.4526 51.634 24.319V19.9763L37.2638 20.0431C37.0525 20.0431 36.982 19.9763 36.8412 19.8427C36.7003 19.7091 36.6298 19.6422 36.6298 19.4418V11.7586C36.6298 11.4914 36.982 11.1573 37.2638 11.1573L51.7044 11.0237V6.68103C51.7044 6.4806 51.8453 6.28017 52.0566 6.14655C52.1271 6.14655 52.1271 6.07974 52.1975 6.07974C52.3384 6.07974 52.4793 6.14655 52.6202 6.21336L65.3702 14.9655C65.511 15.0991 65.5815 15.2996 65.5815 15.4332C65.5815 15.7004 65.4406 15.834 65.3702 15.9009L52.5497 24.7866C52.4793 24.8534 52.268 24.9203 52.1975 24.9203ZM52.1975 18.8405C52.4088 18.8405 52.4793 18.9073 52.6202 19.0409C52.761 19.1746 52.8315 19.2414 52.8315 19.4418L52.6906 23.3168L63.8204 15.5L52.6906 7.81681V11.625C52.6906 11.8922 52.3384 12.2263 52.0566 12.2263L37.8273 12.3599V18.9741L52.1975 18.8405ZM85.6575 19.1746C81.8536 19.1746 78.6133 16.1681 78.5428 12.4935C78.5428 8.81897 81.7127 5.8125 85.6575 5.8125C89.6022 5.8125 92.7721 8.81897 92.7721 12.4935C92.7721 16.1681 89.6022 19.1746 85.6575 19.1746ZM85.6575 6.94828C82.4171 6.94828 79.7403 9.42026 79.7403 12.4267C79.7403 15.4332 82.4171 17.9052 85.6575 17.9052C88.8978 17.9052 91.5746 15.4332 91.5746 12.4267C91.5746 9.42026 88.8978 6.94828 85.6575 6.94828ZM16.3425 19.1746C12.5387 19.1746 9.29834 16.1681 9.2279 12.4935C9.2279 8.81897 12.3978 5.8125 16.3425 5.8125C20.2873 5.8125 23.4572 8.81897 23.4572 12.4935C23.4572 16.1681 20.2873 19.1746 16.3425 19.1746ZM16.3425 6.94828C13.1022 6.94828 10.4254 9.42026 10.4254 12.4267C10.4254 15.4332 13.1022 17.9052 16.3425 17.9052C19.5829 17.9052 22.2597 15.4332 22.2597 12.4267C22.2597 9.42026 19.6533 6.94828 16.3425 6.94828Z"
        fill="none" />
</svg>