<svg width="22" height="12" viewBox="0 0 22 12" fill="none" xmlns="http://www.w3.org/2000/svg">
<path d="M21.9467 0H0V1.02013H21.9467V0Z" fill="white"/>
<path d="M18.1915 7.08716C16.9663 7.08716 15.9275 6.04018 15.9275 4.80528C15.9275 4.10729 15.3416 3.48984 14.6225 3.48984H14.5159C14.436 3.48984 14.3827 3.51669 14.3561 3.51669C14.3295 3.51669 14.3028 3.54353 14.2762 3.54353C14.1963 3.57038 14.143 3.59722 14.1164 3.59722C13.6636 3.81199 13.344 4.29521 13.344 4.77843C13.344 6.01333 12.3053 7.06031 11.0801 7.06031C9.8549 7.06031 8.78952 6.01333 8.78952 4.77843C8.78952 4.08044 8.17693 3.463 7.48444 3.463C6.79194 3.463 6.17935 4.08044 6.17935 4.77843C6.17935 6.01333 5.14061 7.06031 3.91543 7.06031C2.69025 7.06031 1.65151 6.01333 1.65151 4.77843C1.65151 4.08044 1.03892 3.463 0.346422 3.463C0.266519 3.463 0.159981 3.463 0.0800781 3.48984V2.46971C0.159981 2.46971 0.266519 2.44286 0.346422 2.44286C1.5716 2.44286 2.61034 3.48984 2.61034 4.72474C2.61034 5.42273 3.22294 6.04018 3.91543 6.04018C4.60792 6.04018 5.22051 5.42273 5.22051 4.72474C5.22051 3.48984 6.25926 2.44286 7.48444 2.44286C8.70962 2.44286 9.74836 3.48984 9.74836 4.72474C9.74836 5.42273 10.361 6.04018 11.0534 6.04018C11.7459 6.04018 12.3585 5.42273 12.3585 4.72474C12.3585 3.65092 13.1309 2.68447 14.1963 2.46971L14.2762 2.44286C14.4094 2.41602 14.5425 2.41602 14.6491 2.41602C15.9009 2.41602 16.9396 3.463 16.9396 4.69789C16.9663 5.44957 17.5522 6.01333 18.2181 6.01333C18.9106 6.01333 19.5232 5.39588 19.5232 4.69789C19.5232 3.463 20.5619 2.41602 21.7871 2.41602C21.867 2.41602 21.9203 2.41602 22.0002 2.44286V3.43615C21.9203 3.43615 21.867 3.4093 21.7871 3.4093C21.0946 3.4093 20.482 4.02675 20.482 4.72474C20.4554 6.04018 19.4166 7.08716 18.1915 7.08716Z" fill="white"/>
<path d="M11.0006 9.39601C10.6543 9.39601 10.3613 9.10071 10.3613 8.75172C10.3613 8.40272 10.6543 8.10742 11.0006 8.10742C11.3468 8.10742 11.6398 8.40272 11.6398 8.75172C11.6398 9.12756 11.3468 9.39601 11.0006 9.39601Z" fill="white"/>
<path d="M2.1568 9.42238C2.50984 9.42238 2.79603 9.13392 2.79603 8.77808C2.79603 8.42225 2.50984 8.13379 2.1568 8.13379C1.80377 8.13379 1.51758 8.42225 1.51758 8.77808C1.51758 9.13392 1.80377 9.42238 2.1568 9.42238Z" fill="white"/>
<path d="M15.4205 11.9995C15.7735 11.9995 16.0597 11.7111 16.0597 11.3552C16.0597 10.9994 15.7735 10.7109 15.4205 10.7109C15.0674 10.7109 14.7812 10.9994 14.7812 11.3552C14.7812 11.7111 15.0674 11.9995 15.4205 11.9995Z" fill="white"/>
<path d="M6.60407 11.9995C6.9571 11.9995 7.24329 11.7111 7.24329 11.3552C7.24329 10.9994 6.9571 10.7109 6.60407 10.7109C6.25103 10.7109 5.96484 10.9994 5.96484 11.3552C5.96484 11.7111 6.25103 11.9995 6.60407 11.9995Z" fill="white"/>
<path d="M19.815 9.42238C20.168 9.42238 20.4542 9.13392 20.4542 8.77808C20.4542 8.42225 20.168 8.13379 19.815 8.13379C19.462 8.13379 19.1758 8.42225 19.1758 8.77808C19.1758 9.13392 19.462 9.42238 19.815 9.42238Z" fill="white"/>
</svg>
