<svg width="41" height="41" viewBox="0 0 41 41" fill="none" xmlns="http://www.w3.org/2000/svg">
    <path
        d="M26.9693 9.57251C25.3521 9.57251 24.0845 10.8838 24.0845 12.4574C24.0845 14.0309 25.3958 15.3422 26.9693 15.3422C28.5429 15.3422 29.8542 14.0309 29.8542 12.4574C29.8542 10.8838 28.5866 9.57251 26.9693 9.57251ZM26.9693 13.6375C26.3137 13.6375 25.7892 13.113 25.7892 12.4574C25.7892 11.8017 26.3137 11.2772 26.9693 11.2772C27.625 11.2772 28.1495 11.8017 28.1495 12.4574C28.1495 13.113 27.625 13.6375 26.9693 13.6375Z"
        fill="white" />
    <path
        d="M40.9563 20.4563C40.9563 14.9925 38.8145 9.83475 34.9243 5.98827C31.0778 2.14179 25.9638 0 20.5 0C15.0362 0 9.87846 2.14179 6.03198 5.98827C2.14179 9.83475 0 14.9925 0 20.4563V20.5C0 25.9638 2.14179 31.1215 5.98827 34.968C9.83475 38.8145 14.9925 40.9563 20.4563 40.9563C25.92 40.9563 31.1215 38.8582 34.968 34.968C38.8145 31.0778 41 25.9638 40.9563 20.4563ZM20.5 1.70469C30.5533 1.70469 38.8145 9.65992 39.2516 19.6258H1.7484C2.1855 9.65992 10.4467 1.70469 20.5 1.70469ZM20.5 39.2516C10.403 39.2516 2.1855 31.2527 1.7484 21.2868H39.2953C38.8145 31.2964 30.5533 39.2516 20.5 39.2516Z"
        fill="white" />
    <path
        d="M13.6812 33.7877C13.8561 34.0063 14.1183 34.1374 14.3806 34.1374C14.5554 34.1374 14.7303 34.0937 14.8614 33.9626C15.2548 33.7003 15.3422 33.1321 15.0362 32.7824L9.35394 24.9583C9.09168 24.5649 8.52345 24.4775 8.17377 24.7835C7.78038 25.0457 7.69296 25.614 7.99893 25.9636L13.6812 33.7877Z"
        fill="white" />
    <path
        d="M16.0851 4.54583C15.9102 4.37099 15.6917 4.28357 15.4731 4.28357C15.2546 4.28357 15.036 4.37099 14.8612 4.54583C14.4678 4.98293 10.8836 8.7857 10.2716 10.8838C9.79083 12.4136 10.1405 14.1183 11.1895 15.517C12.2823 17.0032 13.987 17.9211 15.5168 17.9211C17.0904 17.9211 18.7951 16.9595 19.8441 15.517C20.8932 14.1183 21.1991 12.4136 20.7183 10.8838C20.0627 8.7857 16.4785 4.98293 16.0851 4.54583ZM18.4454 14.5117C17.7023 15.5608 16.4785 16.2164 15.4731 16.2164C14.4678 16.2164 13.2439 15.517 12.5008 14.5117C12.0637 13.9435 11.4518 12.7633 11.8452 11.3646C12.1949 10.1407 14.2055 7.78037 15.4294 6.38165C16.6533 7.78037 18.664 10.1407 19.0574 11.3646C19.4945 12.7633 18.8825 13.9435 18.4454 14.5117Z"
        fill="white" />
    <path
        d="M19.3634 33.7877C19.5382 34.0063 19.8005 34.1374 20.0627 34.1374C20.2376 34.1374 20.4124 34.0937 20.5435 33.9626C20.9369 33.7003 21.0243 33.1321 20.7184 32.7824L15.0361 24.9583C14.7738 24.5649 14.2056 24.4775 13.8559 24.7835C13.4625 25.0457 13.3751 25.614 13.6811 25.9636L19.3634 33.7877Z"
        fill="white" />
    <path
        d="M25.046 33.7877C25.2208 34.0063 25.4831 34.1374 25.7453 34.1374C25.9202 34.1374 26.095 34.0937 26.2262 33.9626C26.6195 33.7003 26.707 33.1321 26.401 32.7824L20.7187 24.9583C20.4564 24.5649 19.8882 24.4775 19.5385 24.7835C19.1451 25.0457 19.0577 25.614 19.3637 25.9636L25.046 33.7877Z"
        fill="white" />
    <path
        d="M30.0289 33.0884C30.2037 33.3069 30.466 33.4381 30.7283 33.4381C30.9031 33.4381 31.0779 33.3944 31.2091 33.2632C31.6025 33.001 31.6899 32.4328 31.3839 32.0831L25.7016 24.259C25.4393 23.8656 24.8711 23.7782 24.5214 24.0841C24.128 24.3464 24.0406 24.9146 24.3466 25.2643L30.0289 33.0884Z"
        fill="white" />
</svg>