<svg width="50" height="51" viewBox="0 0 50 51" fill="none" xmlns="http://www.w3.org/2000/svg">
<path d="M17.2585 51C16.9282 51 16.6804 50.7516 16.6804 50.4205V43.5487H0V42.5138H16.6804V3.72565C16.6804 1.65584 18.332 0 20.3964 0H30.1404C32.2048 0 33.8563 1.65584 33.8563 3.72565V42.4724H49.9587V43.5073H33.8563V50.3791C33.8563 50.7102 33.6086 50.9586 33.2783 50.9586H17.2585V51ZM17.8365 49.8409H32.7415V20.6981H17.8365V49.8409ZM17.8365 19.539H32.7415V15.7719H17.8365V19.539ZM29.3972 3.39448C29.7275 3.39448 29.9752 3.64286 29.9752 3.97403V6.58198C29.9752 6.87175 29.7688 7.12013 29.4798 7.16153C28.4889 7.32711 28.2411 8.5276 28.2411 8.98295V9.68669H28.9843C30.0165 9.68669 30.8836 10.5146 30.8836 11.5909V14.6542H32.7002V3.72565C32.7002 2.31818 31.5442 1.15909 30.1404 1.15909H20.3964C18.9926 1.15909 17.8365 2.31818 17.8365 3.72565V14.6542H19.6532V11.5909C19.6532 10.556 20.4789 9.68669 21.5524 9.68669H21.7589V6.04383C21.7589 4.59497 22.8737 3.39448 24.2775 3.39448H29.3972ZM21.5524 10.8872C21.1396 10.8872 20.8092 11.2183 20.8092 11.6323V14.6956H29.7275V11.5909C29.7275 11.1769 29.3972 10.8458 28.9843 10.8458H21.5524V10.8872ZM24.2362 4.55357C23.493 4.55357 22.8737 5.21591 22.8737 6.04383V9.68669H27.0851V8.98295C27.0851 7.98945 27.5805 6.66477 28.6953 6.16802L28.7779 6.12662V4.55357H24.2362Z" fill="#10777E"/>
</svg>
