<svg width="36" height="34" viewBox="0 0 36 34" fill="none" xmlns="http://www.w3.org/2000/svg">
    <path
        d="M17.9403 0.0435456C17.5317 0.0870753 17.2048 0.478842 17.2048 0.914139V7.31298C17.2048 7.79181 17.5725 8.18357 18.022 8.18357C18.4714 8.18357 18.8392 7.79181 18.8392 7.31298C18.8392 7.31298 18.8392 7.31299 18.8392 7.26946V0.870593C18.8392 0.391767 18.4714 0 18.022 0C18.022 0.0435297 17.9811 0.0435456 17.9403 0.0435456ZM12.9963 3.22121C12.5469 3.22121 12.1791 3.61297 12.1791 4.0918C12.1791 4.17886 12.1791 4.26591 12.22 4.35297L13.2415 8.09653C13.364 8.57536 13.7726 8.83654 14.2221 8.74948C14.6715 8.66242 14.9167 8.18358 14.835 7.70476C14.835 7.66123 14.835 7.66122 14.835 7.61769L13.8135 3.87415C13.6501 3.48238 13.364 3.22121 12.9963 3.22121ZM23.0477 3.22121C22.6799 3.22121 22.3939 3.48238 22.3122 3.87415L21.2907 7.61769C21.1681 8.05299 21.3724 8.57535 21.8219 8.70593C22.2713 8.83652 22.7208 8.61888 22.8434 8.14005C22.8434 8.09652 22.8434 8.09652 22.8434 8.05299L23.8648 4.30945C23.9874 3.83062 23.7423 3.3518 23.3337 3.22121C23.2111 3.22121 23.1294 3.22121 23.0477 3.22121ZM6.78572 3.22121C6.33627 3.30827 6.05026 3.74356 6.09112 4.22238C6.09112 4.35297 6.13198 4.44004 6.21369 4.5271L9.23727 9.88124C9.44157 10.3165 9.93187 10.4907 10.3405 10.273C10.7491 10.0554 10.9125 9.53301 10.7082 9.09771C10.6673 9.05418 10.6673 9.01066 10.6265 8.96713L7.6029 3.61296C7.43947 3.35178 7.1126 3.17768 6.78572 3.22121ZM28.9722 3.22121C28.7271 3.26474 28.5228 3.43885 28.4002 3.6565L25.4175 9.01065C25.1315 9.40241 25.2132 9.92477 25.5809 10.2295C25.9487 10.5342 26.439 10.4471 26.725 10.0554C26.7658 10.0118 26.7658 9.96829 26.8067 9.92476L29.8303 4.57062C30.0754 4.17885 29.9529 3.61297 29.5851 3.35179C29.3808 3.26473 29.1765 3.22121 28.9722 3.22121ZM3.88472 8.57535C3.43527 8.57535 3.06754 8.96712 3.06754 9.44594C3.06754 9.66359 3.14926 9.88125 3.3127 10.0554L5.84596 12.7542C6.17284 13.1024 6.66314 13.1024 6.99002 12.7542C7.31689 12.406 7.31689 11.8836 6.99002 11.5354C6.99002 11.5354 6.99002 11.5354 6.94916 11.4918L4.41589 8.83652C4.29332 8.6624 4.08902 8.57535 3.88472 8.57535ZM32.1592 8.57535C31.9549 8.57535 31.7507 8.6624 31.5872 8.83652L29.0539 11.4918C28.7271 11.8401 28.7271 12.3624 29.0131 12.7107C29.34 13.0589 29.8303 13.0589 30.1571 12.7542C30.1571 12.7542 30.1571 12.7542 30.198 12.7107L32.7313 10.0118C33.0581 9.66359 33.0581 9.14124 32.7313 8.793C32.6087 8.66241 32.3635 8.57535 32.1592 8.57535ZM18.022 9.66359C11.4028 9.66359 5.84596 14.5389 4.45675 21.1119C4.33417 21.5907 4.62019 22.0696 5.06964 22.1566C5.51909 22.2437 5.96854 21.9825 6.05026 21.5037C7.31689 15.7142 12.1791 11.4048 18.022 11.4048C24.5594 11.4048 29.8711 16.7589 30.3206 23.5496H0.861148C0.820289 23.5496 0.820289 23.5496 0.77943 23.5496C0.32998 23.5931 -0.0377526 23.9849 0.00310657 24.4637C0.0439657 24.9425 0.411698 25.3343 0.861148 25.2908H35.1828C35.6323 25.2908 36 24.899 36 24.4202C36 23.9413 35.6323 23.5496 35.1828 23.5496C35.1828 23.5496 35.1828 23.5496 35.142 23.5496H31.9141C31.5055 15.8013 25.4175 9.66359 18.022 9.66359ZM7.07174 27.9025C6.62228 27.9461 6.25455 28.3378 6.29541 28.8166C6.33627 29.2955 6.704 29.6873 7.15345 29.6437H28.8905C29.34 29.6437 29.7077 29.252 29.7077 28.7731C29.7077 28.2943 29.34 27.9025 28.8905 27.9025C28.8905 27.9025 28.8905 27.9025 28.8497 27.9025H7.15345C7.1126 27.9025 7.07174 27.9025 7.07174 27.9025ZM12.506 32.2555C12.0566 32.299 11.6888 32.6908 11.7297 33.1696C11.7705 33.6484 12.1383 34.0402 12.5877 33.9967H23.4562C23.9057 33.9967 24.2734 33.6049 24.2734 33.1261C24.2734 32.6473 23.9057 32.2555 23.4562 32.2555C23.4562 32.2555 23.4562 32.2555 23.4154 32.2555H12.5877C12.5469 32.2555 12.506 32.2555 12.506 32.2555Z"
        fill="#10777E" />
</svg>