<svg width="42" height="41" viewBox="0 0 42 41" fill="none" xmlns="http://www.w3.org/2000/svg">
<g clip-path="url(#clip0)">
<path d="M32.8483 17.9185C27.8083 17.9185 23.741 13.8836 23.741 8.98095C23.741 4.07831 27.8083 0 32.8483 0C37.8883 0 41.9999 4.03492 41.9999 8.93757C41.9999 13.8402 37.8883 17.9185 32.8483 17.9185ZM32.8483 1.51852C28.6483 1.51852 25.2441 4.85926 25.2441 8.98095C25.2441 13.1026 28.6483 16.4434 32.8483 16.4434C37.0483 16.4434 40.4525 13.1026 40.4525 8.98095C40.4525 4.85926 37.0483 1.51852 32.8483 1.51852Z" fill="#10777E"/>
<path d="M9.10737 17.9185C4.11158 17.9185 0 13.8836 0 8.93757C0 3.99153 4.11158 0 9.10737 0C14.1032 0 18.2147 4.03492 18.2147 8.93757C18.2147 13.8402 14.1474 17.9185 9.10737 17.9185ZM9.10737 1.51852C4.90737 1.51852 1.50316 4.85926 1.50316 8.98095C1.50316 13.1026 4.90737 16.4434 9.10737 16.4434C13.3074 16.4434 16.7116 13.1026 16.7116 8.98095C16.7116 4.85926 13.3074 1.51852 9.10737 1.51852Z" fill="#10777E"/>
<path d="M9.10737 41C4.11158 41 0 36.9651 0 32.019C0 27.073 4.11158 23.0815 9.10737 23.0815C14.1032 23.0815 18.2147 27.1164 18.2147 32.019C18.2147 36.9217 14.1474 41 9.10737 41ZM9.10737 24.6C4.90737 24.6 1.50316 27.9407 1.50316 32.0624C1.50316 36.1841 4.90737 39.5249 9.10737 39.5249C13.3074 39.5249 16.7116 36.1841 16.7116 32.0624C16.7116 27.9407 13.3074 24.6 9.10737 24.6Z" fill="#10777E"/>
<path d="M32.8483 41C27.8083 41 23.741 36.9651 23.741 32.0624C23.741 27.1598 27.8525 23.1249 32.8483 23.1249C37.8441 23.1249 41.9999 27.1164 41.9999 32.0191C41.9999 36.9217 37.8883 41 32.8483 41ZM32.8483 24.6C28.6483 24.6 25.2441 27.9408 25.2441 32.0624C25.2441 36.1841 28.6483 39.5249 32.8483 39.5249C37.0483 39.5249 40.4525 36.1841 40.4525 32.0624C40.4525 27.9408 37.0483 24.6 32.8483 24.6Z" fill="#10777E"/>
<path d="M7.91365 12.1481C7.69259 12.1481 7.47154 12.0613 7.33891 11.9312L4.95154 9.54494C4.7747 9.37139 4.68628 9.19785 4.68628 8.98092C4.68628 8.76399 4.7747 8.54705 4.95154 8.4169C5.12838 8.24335 5.30523 8.15658 5.52628 8.15658C5.74733 8.15658 5.96838 8.24335 6.10102 8.4169L7.91365 10.1957L9.37259 8.76399L12.1136 6.07404C12.2905 5.90049 12.4673 5.81372 12.6884 5.81372C12.9094 5.81372 13.1305 5.90049 13.2631 6.07404C13.44 6.24758 13.5284 6.42113 13.5284 6.68145C13.5284 6.89838 13.44 7.11531 13.2631 7.24547L8.53259 11.8878C8.35575 12.0613 8.1347 12.1481 7.91365 12.1481Z" fill="#10777E"/>
</g>
<defs>
<clipPath id="clip0">
<rect width="42" height="41" fill="white"/>
</clipPath>
</defs>
</svg>
