<svg width="21" height="17" viewBox="0 0 21 17" fill="none" xmlns="http://www.w3.org/2000/svg">
<path d="M18.3459 4.23641C19.1407 3.64028 19.8561 2.92493 20.4125 2.09035C19.6971 2.40829 18.8626 2.64674 18.028 2.72622C18.9023 2.20958 19.5382 1.41474 19.8561 0.421194C19.0613 0.898096 18.1472 1.25577 17.2331 1.45448C16.4383 0.619904 15.3653 0.143001 14.173 0.143001C11.868 0.143001 10.0001 2.01087 10.0001 4.3159C10.0001 4.63383 10.0399 4.95177 10.1193 5.2697C6.6618 5.07099 3.56194 3.40183 1.49536 0.898096C1.13769 1.49422 0.938978 2.20958 0.938978 3.00441C0.938978 4.43512 1.65433 5.70686 2.80684 6.46196C2.13123 6.42221 1.45562 6.26325 0.899236 5.94531V5.98505C0.899236 8.01189 2.32994 9.68105 4.23755 10.0785C3.91962 10.1579 3.5222 10.2374 3.16452 10.2374C2.88633 10.2374 2.64788 10.1977 2.36968 10.1579C2.88633 11.8271 4.43626 13.0194 6.26439 13.0591C4.83368 14.1719 3.0453 14.8475 1.09795 14.8475C0.740268 14.8475 0.422334 14.8077 0.104399 14.768C1.93252 15.9603 4.11833 16.6359 6.50284 16.6359C14.173 16.6359 18.3459 10.3169 18.3459 4.7928C18.3459 4.59409 18.3459 4.43512 18.3459 4.23641Z" fill="#10777E"/>
</svg>
