<svg width="31" height="27" viewBox="0 0 31 27" fill="none" xmlns="http://www.w3.org/2000/svg">
<path d="M2.1961 27C1.40041 27 0.700205 26.5866 0.286448 25.9187C-0.0954825 25.2509 -0.0954825 24.4558 0.286448 23.788L13.6222 1.08127C14.0041 0.413428 14.7043 0 15.5 0C16.2957 0 16.9959 0.413428 17.3778 1.08127L30.6817 23.7562C31.0637 24.424 31.0637 25.2191 30.6817 25.8869C30.2998 26.5866 29.5678 26.9682 28.7721 26.9682H2.1961V27ZM15.5 1.17668C15.1181 1.17668 14.7998 1.36749 14.6088 1.68551L1.30493 24.3604C1.11396 24.6784 1.11396 25.0283 1.30493 25.3463C1.49589 25.6643 1.81417 25.8551 2.1961 25.8551H28.8357C29.2177 25.8551 29.5359 25.6643 29.7269 25.3463C29.9179 25.0283 29.9179 24.6784 29.7269 24.3604L16.3912 1.65371C16.2002 1.33569 15.8819 1.17668 15.5 1.17668ZM15.5 22.0389C15.3409 22.0389 15.1817 21.9753 15.0862 21.8799C14.9908 21.7845 14.9271 21.6254 14.9271 21.4664C14.9271 21.3074 14.9908 21.1484 15.0862 21.053C15.1817 20.9576 15.3409 20.894 15.5 20.894C15.6591 20.894 15.8183 20.9576 15.9138 21.053C16.0092 21.1484 16.0729 21.3074 16.0729 21.4664C16.0729 21.6254 16.0092 21.7845 15.9138 21.8799C15.8183 21.9753 15.6591 22.0389 15.5 22.0389ZM15.5 18.0636C15.1817 18.0636 14.9271 17.8092 14.9271 17.4912V9.54064C14.9271 9.22262 15.1817 8.9682 15.5 8.9682C15.8183 8.9682 16.0729 9.22262 16.0729 9.54064V17.4912C16.0729 17.8092 15.8183 18.0636 15.5 18.0636Z" fill="#10777E"/>
</svg>
