<svg width="18" height="19" viewBox="0 0 18 19" fill="none" xmlns="http://www.w3.org/2000/svg">
<path d="M15.1941 3.09035C13.5647 1.42119 11.3391 0.46739 8.95464 0.46739C4.10613 0.46739 0.131944 4.44157 0.131944 9.29008C0.131944 10.8798 0.569104 12.3899 1.3242 13.7014L0.0922022 18.2717L4.742 17.0795C6.05348 17.7551 7.48419 18.1525 8.95464 18.1525C13.8429 18.1525 17.8966 14.1783 17.8966 9.32982C17.8966 6.94531 16.8633 4.75951 15.1941 3.09035ZM8.95464 16.6423C7.64315 16.6423 6.37141 16.2846 5.2189 15.609L4.98045 15.4501L2.19852 16.2052L2.95362 13.5027L2.75491 13.2245C2.03955 12.0323 1.64213 10.681 1.64213 9.29008C1.64213 5.27615 4.94071 1.97758 8.99438 1.97758C10.9417 1.97758 12.7699 2.73268 14.1608 4.12364C15.5518 5.5146 16.3864 7.34273 16.3864 9.32982C16.3864 13.3437 13.0083 16.6423 8.95464 16.6423ZM13.0083 11.1579C12.7699 11.0387 11.6968 10.5221 11.4981 10.4426C11.2994 10.3631 11.1404 10.3234 10.9815 10.5618C10.8622 10.7605 10.4251 11.2772 10.3059 11.4361C10.1469 11.5554 10.0277 11.5951 9.82896 11.4759C8.51747 10.84 7.6829 10.3234 6.80858 8.85292C6.57012 8.4555 7.04703 8.49524 7.44444 7.66066C7.52393 7.5017 7.48419 7.38247 7.44444 7.26325C7.4047 7.14402 6.9278 6.07099 6.76883 5.63383C6.57012 5.19667 6.41116 5.23641 6.25219 5.23641C6.13296 5.23641 5.974 5.23641 5.85477 5.23641C5.6958 5.23641 5.45735 5.27615 5.25864 5.5146C5.05993 5.75306 4.50355 6.2697 4.50355 7.34273C4.50355 8.4555 5.25864 9.48879 5.37787 9.64776C5.49709 9.76698 6.9278 11.9925 9.15334 12.9463C10.5443 13.5822 11.1007 13.6219 11.816 13.5027C12.2135 13.463 13.0878 12.9861 13.2865 12.4694C13.4852 11.9528 13.4852 11.5156 13.4057 11.4361C13.366 11.3169 13.207 11.2772 13.0083 11.1579Z" fill="#10777E"/>
</svg>
